<svg width="156" height="32" viewBox="0 0 156 32" fill="none" xmlns="http://www.w3.org/2000/svg">
<path d="M31.808 8.93488L18.1809 0V4.99554L26.9228 10.6762L25.8943 13.9304H18.1809V18.0696H25.8943L26.9228 21.3238L18.1809 27.0045V32L31.808 23.0937L29.5796 16.0143L31.808 8.93488Z" fill="url(#paint0_linear_536_8492)"/>
<path d="M6.32502 18.0696H14.0099V13.9304H6.29645L5.29656 10.6762L14.0099 4.99554V0L0.382812 8.93488L2.61114 16.0143L0.382812 23.0937L14.0385 32V27.0045L5.29656 21.3238L6.32502 18.0696Z" fill="url(#paint1_linear_536_8492)"/>
<mask id="mask0_536_8492" style="mask-type:alpha" maskUnits="userSpaceOnUse" x="0" y="0" width="32" height="32">
<path d="M31.808 8.93488L18.1809 0V4.99554L26.9228 10.6762L25.8943 13.9304H18.1809V18.0696H25.8943L26.9228 21.3238L18.1809 27.0045V32L31.808 23.0937L29.5796 16.0143L31.808 8.93488Z" fill="url(#paint2_linear_536_8492)"/>
<path d="M6.32502 18.0696H14.0099V13.9304H6.29645L5.29656 10.6762L14.0099 4.99554V0L0.382812 8.93488L2.61114 16.0143L0.382812 23.0937L14.0385 32V27.0045L5.29656 21.3238L6.32502 18.0696Z" fill="url(#paint3_linear_536_8492)"/>
</mask>
<g mask="url(#mask0_536_8492)">
<rect x="0.400391" width="31.2" height="32" fill="url(#paint4_linear_536_8492)"/>
</g>
<path d="M58.9207 8.7998V11.5974H46.0281V14.46H56.9826V17.2576H46.0281V20.4022H58.9207V23.1998H42.7207V8.7998H58.9207Z" fill="white"/>
<path d="M60.75 23.1998L68.1572 15.9131L60.9598 8.7998H65.5133L70.5913 13.9396L75.4595 8.7998H79.7192L72.5428 15.9131L79.95 23.1998H75.3546L70.5913 17.9082L65.1566 23.1998H60.75Z" fill="white"/>
<path d="M88.8319 8.7998C94.8332 8.7998 98.4422 11.805 98.4422 15.9998C98.4422 20.1946 94.8332 23.1998 88.8319 23.1998C82.8306 23.1998 79.2422 20.1946 79.2422 15.9998C79.2422 11.805 82.8306 8.7998 88.8319 8.7998ZM88.8319 11.492C85.2229 11.492 82.5625 13.3076 82.5625 15.9998C82.5625 18.692 85.2229 20.5076 88.8319 20.5076C92.4615 20.5076 95.1219 18.692 95.1219 15.9998C95.1219 13.3076 92.4615 11.492 88.8319 11.492Z" fill="white"/>
<path d="M110.404 8.7998C115.211 8.7998 118.107 11.4673 118.107 15.9781C118.107 20.5323 115.232 23.1998 110.446 23.1998H100.707V8.7998H110.404ZM114.707 15.9781C114.707 13.1588 113.028 11.5974 109.984 11.5974H104.002V20.4022H109.984C113.028 20.4022 114.707 18.8191 114.707 15.9781Z" fill="white"/>
<path d="M129.005 23.1998C123.944 23.1998 120.105 20.9026 120.105 16.6698V8.7998H123.417V16.3508C123.417 18.967 126.137 20.1794 129.005 20.1794C131.895 20.1794 134.615 18.9883 134.615 16.3508V8.7998H137.905V16.6698C137.905 20.9026 134.088 23.1998 129.005 23.1998Z" fill="white"/>
<path d="M147.174 23.1998C144.455 23.1998 141.523 22.6989 139.441 21.7598L140.525 19.0885C142.394 19.9442 144.965 20.4868 147.28 20.4868C149.936 20.4868 152.421 19.9233 152.421 18.9215C152.421 18.1911 151.635 17.8781 149.999 17.6276L145.368 17.1268C141.799 16.6468 140.057 15.4155 140.057 13.245C140.057 10.4485 143.01 8.7998 147.344 8.7998C149.957 8.7998 153.547 9.2798 155.395 10.1146L154.312 12.6607C152.485 11.9094 149.383 11.5337 147.195 11.5337C144.943 11.5337 143.456 12.0555 143.456 13.0155C143.456 13.6833 144.2 14.0172 146.112 14.2885L150.615 14.7894C154.057 15.2694 155.841 16.4381 155.841 18.7128C155.841 21.5928 152.06 23.1998 147.174 23.1998Z" fill="white"/>
<defs>
<linearGradient id="paint0_linear_536_8492" x1="27.3996" y1="34.2" x2="18.2716" y2="-3.51423" gradientUnits="userSpaceOnUse">
<stop stop-color="#0B46F9"/>
<stop offset="1" stop-color="#BBFBE0"/>
</linearGradient>
<linearGradient id="paint1_linear_536_8492" x1="27.3996" y1="34.2" x2="18.2716" y2="-3.51423" gradientUnits="userSpaceOnUse">
<stop stop-color="#0B46F9"/>
<stop offset="1" stop-color="#BBFBE0"/>
</linearGradient>
<linearGradient id="paint2_linear_536_8492" x1="27.3996" y1="34.2" x2="18.2716" y2="-3.51423" gradientUnits="userSpaceOnUse">
<stop stop-color="#0B46F9"/>
<stop offset="1" stop-color="#BBFBE0"/>
</linearGradient>
<linearGradient id="paint3_linear_536_8492" x1="27.3996" y1="34.2" x2="18.2716" y2="-3.51423" gradientUnits="userSpaceOnUse">
<stop stop-color="#0B46F9"/>
<stop offset="1" stop-color="#BBFBE0"/>
</linearGradient>
<linearGradient id="paint4_linear_536_8492" x1="2.40039" y1="7.2" x2="18.2004" y2="19" gradientUnits="userSpaceOnUse">
<stop offset="0.119792" stop-color="#8952FF" stop-opacity="0.87"/>
<stop offset="1" stop-color="#DABDFF" stop-opacity="0"/>
</linearGradient>
</defs>
</svg>
